<svg id="Layer_1" data-name="Layer 1" xmlns="http://www.w3.org/2000/svg" viewBox="0 0 300 70"><defs><style>.cls-1{fill:#231f20;}</style></defs><title>TC_BrandAssets</title><path class="cls-1" d="M201.59,19.3s-3.87-2.53-7.41-2.53a7.27,7.27,0,0,0-6,3.16c-2.73,3.55-5,12.47-5,19.12,0,5.32,1.71,7,5,7,3.73,0,9.11-2,9.11-2l-1.45,8.61a28,28,0,0,1-9.94,1.71c-5.76,0-13.49-2-13.49-14.94,0-12.09,4.5-21.78,8.36-25.64,3.42-3.42,7.53-5,13-5A15.27,15.27,0,0,1,203,11.64Z"/><path class="cls-1" d="M229.38,53.67h-8.3l-.5-5.12a10.92,10.92,0,0,1-9.69,5.76c-5.44,0-10.13-2.85-10.13-11.78,0-13.35,6.65-23,17-23,5.32,0,7.72,2.85,7.72,2.85l2.28-2.22h7.53ZM218.93,27.09c-4.56,0-7.34,7.85-7.34,14.37,0,4,.88,5.38,2.91,5.38,3.73,0,6.77-8.1,6.77-8.1l1.84-10.32A6.25,6.25,0,0,0,218.93,27.09Z"/><path class="cls-1" d="M266.15,16.14a23.78,23.78,0,0,0-6.26-1.21c-2.22,0-3.36.51-3.86,3.17l-.38,2h7.28l-2.16,6.71h-6.33l-4.11,23.74C248,64.18,241.53,65.7,228.05,65.7l1.33-7.4c5.5-.45,9.17-1.52,10.19-7.47l4.17-24h-5.38l1.21-6.71H245l.44-2.4c1.46-8,5.76-10.57,12.53-10.57a24.49,24.49,0,0,1,9.5,2Z"/><path class="cls-1" d="M271,41.84c.19,3.67,2,4.49,4.94,4.49,4.69,0,11.33-2.53,11.33-2.53l-1,8.17a33,33,0,0,1-12,2.34c-7.09,0-13.87-2.72-13.87-13.61,0-7.47,2.34-13.55,6.52-17.22a17,17,0,0,1,11.59-4c6.45,0,12.4,3.23,12.4,10.13C290.9,40.06,281.73,41.65,271,41.84Zm6.59-15.51c-3.36,0-5.83,3.54-6.46,9.3,5.13-.19,9.5-1,9.5-5.76C280.59,27.53,279.64,26.33,277.55,26.33Zm4.93-11.9h-9.3l8.1-10.13h13Z"/><path class="cls-1" d="M36.06,18.2H26.82L20.55,54H9.86L16.19,18.2H5.68L7.2,9.72H38.78Z"/><path class="cls-1" d="M56.45,29.91a29,29,0,0,0-4.06-.36c-6.25,0-6.9,8-6.9,8L42.33,54H31.63l5.89-33.85h7.87l.1,3.06s2-3.4,8-3.4a8.09,8.09,0,0,1,4.37,1.27Z"/><path class="cls-1" d="M68,54H57.33l5.89-33.55h10.7ZM69.8,16.49a5.89,5.89,0,0,1-5.89-5.95,5.89,5.89,0,1,1,11.78,0A5.89,5.89,0,0,1,69.8,16.49Z"/><path class="cls-1" d="M99.43,20.48h12.09L95.25,54h-13L77.4,20.48H88.92l1.59,22.11Z"/><path class="cls-1" d="M119.81,54h-10.7L115,20.48h10.7Zm1.77-37.54a5.89,5.89,0,0,1-5.88-5.95,5.89,5.89,0,1,1,11.77,0A5.89,5.89,0,0,1,121.58,16.49Z"/><path class="cls-1" d="M159.33,45.73a17.13,17.13,0,1,0-11.67,7.92,17.25,17.25,0,0,0,4.2-1.3,5.37,5.37,0,0,0,3.19,1.35,4.46,4.46,0,0,0,3.19-1.09l.56-.49a4.52,4.52,0,0,0,1.48-3.74A5.42,5.42,0,0,0,159.33,45.73Zm-12.51,3a12.18,12.18,0,1,1,9.92-14.09,12.06,12.06,0,0,1-.88,7,11.78,11.78,0,0,1-.79,1.49,13.8,13.8,0,0,1-.95,1.32l2.41,2.73a2.3,2.3,0,0,1,.59,1.34,1.33,1.33,0,0,1-.41,1.14l-.56.49a1.24,1.24,0,0,1-.93.3,2,2,0,0,1-.24,0,2.31,2.31,0,0,1-1.27-.75L151.31,47a12.33,12.33,0,0,1-1.43.78,11.87,11.87,0,0,1-1.57.61A12.44,12.44,0,0,1,146.82,48.77Z"/><path class="cls-1" d="M153.34,41.25a10.14,10.14,0,0,0,.67-1.63,9.92,9.92,0,0,0-7.81-12.69l0,.05h0a8.94,8.94,0,0,1,.85,2.54,8.85,8.85,0,0,1-.42,4.56,1,1,0,0,0-.33-.09,1.06,1.06,0,0,0-1.06,1.44,1,1,0,0,0,.43.5,8.76,8.76,0,0,1-2.35,2.39,1,1,0,0,0,0-.24.79.79,0,0,0-1.56.27.8.8,0,0,0,.48.6,9.06,9.06,0,0,1-2.39.78,8.75,8.75,0,0,1-5-.6,9.94,9.94,0,0,0,11.33,7.37l.34-.08a10.48,10.48,0,0,0,1.68-.49A10,10,0,0,0,153.34,41.25Z"/><path class="cls-1" d="M142.54,36.59a.84.84,0,1,0-1-.69A.84.84,0,0,0,142.54,36.59Z"/><path class="cls-1" d="M136.81,38.81A1.29,1.29,0,1,0,135.2,38,1.29,1.29,0,0,0,136.81,38.81Z"/><path class="cls-1" d="M139.76,39.26a1.06,1.06,0,0,0,1.06-1.45,1,1,0,0,0-.89-.65,1.05,1.05,0,0,0-.17,2.1Z"/></svg>