<svg id="Layer_1" data-name="Layer 1" xmlns="http://www.w3.org/2000/svg" viewBox="0 0 60 60"><defs><style>.cls-1{fill:#036489;}</style></defs><title>TC_BrandAssets</title><path class="cls-1" d="M9.87,36.4a3.06,3.06,0,0,0,4.3.51,3,3,0,0,0,1.08-1.66l.65-2.56V53.33a4.72,4.72,0,0,0,4.72,4.72h5.79A4.73,4.73,0,0,0,30,56.44a4.7,4.7,0,0,0,3.54,1.61h5.9a4.72,4.72,0,0,0,4.72-4.72V32.74l.64,2.51a3.08,3.08,0,0,0,6-1.45L47.46,19.5a3.49,3.49,0,0,0-3.4-5.93l-6,1.94H17.34a4.72,4.72,0,0,0-4.59,3.64L9.29,33.79A3,3,0,0,0,9.87,36.4Zm38.42-1.47a.69.69,0,0,1-.59.28.73.73,0,0,1-.7-.54l-3-11.55a1.17,1.17,0,0,0-1.44-.84,1.19,1.19,0,0,0-.88,1.2V53.35a2.35,2.35,0,0,1-2.36,2.36h-1.7V39.57a1.18,1.18,0,0,0-2.36,0V55.71H33.48a2.35,2.35,0,0,1-2.36-2.36V22.59h7.14a1.27,1.27,0,0,0,.34-.05l6.67-2,3.15,13.82A.72.72,0,0,1,48.29,34.93Zm-36.7-.59L15.05,19.7a2.35,2.35,0,0,1,2.29-1.81H38.26a1.19,1.19,0,0,0,.37-.06l6.18-2a1.13,1.13,0,0,1,1.43.73,1.6,1.6,0,0,1,0,.21,1.14,1.14,0,0,1-.8,1.23l-7.41,2.24H29.94a1.18,1.18,0,0,0-1.18,1.18V53.35a2.36,2.36,0,0,1-2.36,2.36H24.69V39.57a1.18,1.18,0,0,0-2.36,0V55.71H20.61a2.36,2.36,0,0,1-2.36-2.36v-30a1.18,1.18,0,1,0-2.32-.45L13,34.65a.73.73,0,0,1-.69.53.7.7,0,0,1-.71-.7.78.78,0,0,1,0-.16Z"/><path class="cls-1" d="M36.49,2A6.49,6.49,0,0,0,30,8.44h0A6.49,6.49,0,1,0,23.54,15,6.49,6.49,0,0,0,30,8.44,6.49,6.49,0,1,0,36.49,2Zm-13,10.61a4.13,4.13,0,1,1,4.13-4.12,4.12,4.12,0,0,1-4.13,4.12h0Zm13,0a4.13,4.13,0,1,1,4.13-4.12,4.12,4.12,0,0,1-4.13,4.12h0Z"/></svg>